Coordinates
version=1
nRows=14
nColumns=24
inDegrees=yes

Units are S.I. units (second, meters, Newtons, ...)
Angles are in degrees.

endheader
time	pelvis_tilt	pelvis_list	pelvis_rotation	pelvis_tx	pelvis_ty	pelvis_tz	hip_flexion_r	hip_adduction_r	hip_rotation_r	knee_angle_r	ankle_angle_r	subtalar_angle_r	mtp_angle_r	hip_flexion_l	hip_adduction_l	hip_rotation_l	knee_angle_l	ankle_angle_l	subtalar_angle_l	mtp_angle_l	lumbar_extension	lumbar_bending	lumbar_rotation
      0.69600000	     -0.89432294	     -0.26056550	     -4.23175316	     -0.51076629	      1.07124444	      0.31909982	     14.70113123	      4.94494242	     -3.35426425	    -16.95875227	      2.56971546	     -1.72832803	      2.47594142	     18.18416895	     -1.02421463	     -1.80791694	    -67.15757716	      4.90235720	     -2.75919442	      5.29015710	      3.95672889	      5.00367649	      3.18719571
      0.70016667	     -0.86956131	     -0.21878750	     -4.30903858	     -0.50567192	      1.07206881	      0.31938606	     14.31413785	      4.90730781	     -3.28165908	    -16.84371293	      2.72096122	     -1.64921367	      2.51368795	     18.79012690	     -0.97527350	     -1.67352888	    -67.00627537	      5.28274647	     -3.33313057	      5.31156128	      3.89577135	      4.94764245	      3.30491421
      0.70433333	     -0.85056831	     -0.17383926	     -4.38345492	     -0.50055861	      1.07288269	      0.31966583	     13.92596211	      4.86691571	     -3.19549447	    -16.71314968	      2.85536778	     -1.58877705	      2.54990335	     19.38266610	     -0.92331330	     -1.54557291	    -66.77110721	      5.62355763	     -3.85829936	      5.32811003	      3.84334193	      4.88977599	      3.41478249
      0.70850000	     -0.82177488	     -0.15035838	     -4.42346973	     -0.49545338	      1.07368877	      0.32003360	     13.50701907	      4.85829425	     -3.07458462	    -16.53599329	      2.95069186	     -1.55050924	      2.57076911	     19.95281036	     -0.89897586	     -1.38901417	    -66.46567328	      5.89501972	     -4.21824293	      5.33513798	      3.79265379	      4.79136653	      3.48817238
      0.71266667	     -0.79622699	     -0.10211313	     -4.48821640	     -0.49032827	      1.07448302	      0.32025480	     13.10270602	      4.81014004	     -2.98301565	    -16.38508079	      3.07106668	     -1.54645693	      2.59464123	     20.49833165	     -0.83489798	     -1.26461452	    -66.06888999	      6.23858623	     -4.68863880	      5.34004803	      3.74497570	      4.73581452	      3.56579010
      0.71683333	     -0.76426500	     -0.05077918	     -4.55123599	     -0.48519825	      1.07526350	      0.32047561	     12.68793536	      4.75952430	     -2.88021199	    -16.22559819	      3.17757708	     -1.54978289	      2.62083366	     21.01585338	     -0.76787170	     -1.14594376	    -65.58802735	      6.49005607	     -5.13052180	      5.34041897	      3.69039763	      4.67352293	      3.64930464
      0.72100000	     -0.74485513	     -0.00849906	     -4.59777684	     -0.48006471	      1.07599417	      0.32069660	     12.27776607	      4.72215778	     -2.76367422	    -16.04547389	      3.26503594	     -1.57078339	      2.64309138	     21.52945446	     -0.70804550	     -1.01560393	    -65.03652755	      6.68927573	     -5.49798083	      5.33708545	      3.64662101	      4.61307971	      3.72018690
      0.72516667	     -0.71793343	      0.03738796	     -4.65525027	     -0.47491421	      1.07672016	      0.32089101	     11.85797538	      4.68098510	     -2.63513539	    -15.86437279	      3.35215490	     -1.62787110	      2.66736817	     22.00737502	     -0.64488880	     -0.90564577	    -64.40049692	      6.87724852	     -5.89205493	      5.32929920	      3.60150929	      4.56018800	      3.79289593
      0.72933333	     -0.73220225	      0.08407189	     -4.68818818	     -0.46982101	      1.07732162	      0.32098519	     11.49015914	      4.63249502	     -2.52571554	    -15.69010735	      3.39003873	     -1.65091571	      2.67413619	     22.52064611	     -0.56860931	     -0.75811945	    -63.69939477	      6.96862708	     -6.01644332	      5.32540317	      3.51918934	      4.55498751	      3.80785517
      0.73350000	     -0.68464279	      0.09897367	     -4.72049638	     -0.46456012	      1.07804347	      0.32123967	     11.01377636	      4.63378111	     -2.36394191	    -15.45246001	      3.48643955	     -1.76869861	      2.69159567	     22.92024194	     -0.54108121	     -0.64778821	    -62.91427071	      7.18189727	     -6.44936009	      5.31182572	      3.56287370	      4.46422991	      3.87854060
      0.73766667	     -0.71953980	      0.13572722	     -4.74729033	     -0.45946237	      1.07853444	      0.32125799	     10.66432024	      4.59566920	     -2.24425078	    -15.27424582	      3.52394488	     -1.81831362	      2.69732858	     23.41066508	     -0.46855742	     -0.50182740	    -62.07290500	      7.26085860	     -6.58905683	      5.30504361	      3.46100190	      4.47585413	      3.88707113
      0.74183333	     -0.67217374	      0.14676924	     -4.78021265	     -0.45417616	      1.07918974	      0.32151197	     10.17894136	      4.60718204	     -2.04543422	    -15.01828886	      3.61603161	     -2.02085413	      2.71242939	     23.75853593	     -0.44651905	     -0.41040543	    -61.13577144	      7.39671361	     -7.06485359	      5.28245534	      3.54311295	      4.40241216	      3.95471650
      0.74600000	     -0.65017292	      0.17290808	     -4.83425722	     -0.44898890	      1.07973174	      0.32166951	      9.74024687	      4.59801045	     -1.82234794	    -14.79144043	      3.66628236	     -2.29992029	      2.73236389	     24.11778943	     -0.40541082	     -0.33267125	    -60.12499590	      7.39761745	     -7.57789002	      5.24578157	      3.49198159	      4.36373374	      4.01787911
      0.75016667	     -0.65736862	      0.19473353	     -4.89351795	     -0.44386020	      1.08016797	      0.32177639	      9.34631169	      4.59280575	     -1.62058066	    -14.58409288	      3.65944463	     -2.63483674	      2.76463916	     24.49135660	     -0.37025845	     -0.26423673	    -59.05121928	      7.28254949	     -8.10029742	      5.18408914	      3.35347109	      4.33797292	      4.09699498
